<?xml version="1.0" encoding="UTF-8" standalone="no"?>
<!-- Created with Inkscape (http://www.inkscape.org/) -->

<svg
   xmlns:dc="http://purl.org/dc/elements/1.1/"
   xmlns:cc="http://creativecommons.org/ns#"
   xmlns:rdf="http://www.w3.org/1999/02/22-rdf-syntax-ns#"
   xmlns:svg="http://www.w3.org/2000/svg"
   xmlns="http://www.w3.org/2000/svg"
   xmlns:sodipodi="http://sodipodi.sourceforge.net/DTD/sodipodi-0.dtd"
   xmlns:inkscape="http://www.inkscape.org/namespaces/inkscape"
   width="105mm"
   height="148mm"
   viewBox="0 0 372.04725 524.40945"
   id="svg2"
   version="1.1"
   inkscape:version="0.91 r13725"
   sodipodi:docname="Manual6.svg">
  <defs
     id="defs4">
    <marker
       inkscape:stockid="Arrow1Mstart"
       orient="auto"
       refY="0"
       refX="0"
       id="Arrow1Mstart"
       style="overflow:visible"
       inkscape:isstock="true">
      <path
         id="path15592"
         d="M 0,0 5,-5 -12.5,0 5,5 0,0 Z"
         style="fill:#000000;fill-opacity:1;fill-rule:evenodd;stroke:#000000;stroke-width:1pt;stroke-opacity:1"
         transform="matrix(0.4,0,0,0.4,4,0)"
         inkscape:connector-curvature="0" />
    </marker>
    <marker
       inkscape:stockid="Arrow1Mend"
       orient="auto"
       refY="0"
       refX="0"
       id="Arrow1Mend"
       style="overflow:visible"
       inkscape:isstock="true">
      <path
         id="path15595"
         d="M 0,0 5,-5 -12.5,0 5,5 0,0 Z"
         style="fill:#000000;fill-opacity:1;fill-rule:evenodd;stroke:#000000;stroke-width:1pt;stroke-opacity:1"
         transform="matrix(-0.4,0,0,-0.4,-4,0)"
         inkscape:connector-curvature="0" />
    </marker>
    <clipPath
       id="clipPath4171"
       clipPathUnits="userSpaceOnUse">
      <path
         inkscape:connector-curvature="0"
         id="path4173"
         d="M 98,842 98,1 497,1 497,842 98,842 Z" />
    </clipPath>
    <clipPath
       id="clipPath4177"
       clipPathUnits="userSpaceOnUse">
      <path
         inkscape:connector-curvature="0"
         id="path4179"
         d="M 0,0 595,0 595,842 0,842 0,0 Z" />
    </clipPath>
    <clipPath
       id="clipPath4213"
       clipPathUnits="userSpaceOnUse">
      <path
         inkscape:connector-curvature="0"
         id="path4215"
         d="M 98,842 98,1 497,1 497,842 98,842 Z" />
    </clipPath>
    <clipPath
       id="clipPath4219"
       clipPathUnits="userSpaceOnUse">
      <path
         inkscape:connector-curvature="0"
         id="path4221"
         d="m 98,842 0,-841.0551777 399.5444,0 L 497.5444,842 98,842 Z" />
    </clipPath>
    <clipPath
       id="clipPath4225"
       clipPathUnits="userSpaceOnUse">
      <path
         inkscape:connector-curvature="0"
         id="path4227"
         d="M 0,0 595,0 595,842 0,842 0,0 Z" />
    </clipPath>
    <filter
       y="-0.25"
       height="1.5"
       inkscape:menu-tooltip="Darkens the edge with an inner blur and adds a flexible glow"
       inkscape:menu="Shadows and Glows"
       inkscape:label="Dark And Glow"
       style="color-interpolation-filters:sRGB"
       id="filter5098">
      <feGaussianBlur
         stdDeviation="5"
         result="result6"
         id="feGaussianBlur5100" />
      <feComposite
         result="result8"
         in="SourceGraphic"
         operator="atop"
         in2="result6"
         id="feComposite5102" />
      <feComposite
         result="result9"
         operator="over"
         in2="SourceAlpha"
         in="result8"
         id="feComposite5104" />
      <feColorMatrix
         values="1 0 0 0 0 0 1 0 0 0 0 0 1 0 0 0 0 0 1 0 "
         result="result10"
         id="feColorMatrix5106" />
      <feBlend
         in="result10"
         mode="normal"
         in2="result6"
         id="feBlend5108" />
    </filter>
  </defs>
  <sodipodi:namedview
     id="base"
     pagecolor="#ffffff"
     bordercolor="#666666"
     borderopacity="1.0"
     inkscape:pageopacity="0.0"
     inkscape:pageshadow="2"
     inkscape:zoom="1.9412292"
     inkscape:cx="193.81233"
     inkscape:cy="209.79342"
     inkscape:document-units="mm"
     inkscape:current-layer="g13547"
     showgrid="true"
     inkscape:window-width="1600"
     inkscape:window-height="1199"
     inkscape:window-x="954"
     inkscape:window-y="143"
     inkscape:window-maximized="0"
     showborder="true"
     showguides="false"
     inkscape:showpageshadow="false"
     borderlayer="true">
    <inkscape:grid
       type="xygrid"
       id="grid4346" />
  </sodipodi:namedview>
  <metadata
     id="metadata7">
    <rdf:RDF>
      <cc:Work
         rdf:about="">
        <dc:format>image/svg+xml</dc:format>
        <dc:type
           rdf:resource="http://purl.org/dc/dcmitype/StillImage" />
        <dc:title></dc:title>
      </cc:Work>
    </rdf:RDF>
  </metadata>
  <g
     inkscape:groupmode="layer"
     id="layer1"
     inkscape:label="Ebene 3"
     style="display:inline"
     transform="translate(0,-42.519685)">
    <rect
       style="display:inline;fill:#000000;fill-opacity:0.39402986;fill-rule:evenodd;stroke:none;stroke-width:2.7579999;stroke-linecap:round;stroke-linejoin:round;stroke-miterlimit:4;stroke-dasharray:none;stroke-opacity:1"
       id="rect4561"
       width="339.06009"
       height="19.848625"
       x="15.944881"
       y="51.017517" />
  </g>
  <g
     inkscape:groupmode="layer"
     id="layer2"
     inkscape:label="Ebene 2"
     style="display:inline"
     transform="translate(0,-42.519685)">
    <g
       transform="matrix(1.25,0,0,-1.25,0.19920282,559.64399)"
       id="g13547">
      <text
         transform="scale(1,-1)"
         style="font-variant:normal;font-weight:normal;font-size:8px;font-family:Swis721LtBT;-inkscape-font-specification:Swis721LtBT;writing-mode:lr-tb;fill:#000000;fill-opacity:1;fill-rule:nonzero;stroke:none"
         id="text18559"
         x="149.39017"
         y="-17.26812">
        <tspan
           x="149.39017"
           y="-17.26812"
           id="tspan18561">5</tspan>
      </text>
      <g
         id="g21350"
         transform="translate(-5.2453043,-79.092087)">
        <path
           inkscape:connector-curvature="0"
           id="path18563"
           style="fill:#000000;fill-opacity:1;fill-rule:evenodd;stroke:none"
           d="m 69.076358,186.49332 c -2.4179,0.3966 -3.639399,0.7804 -5.6959,2.0639 3e-4,0.0777 6e-4,0.1554 9e-4,0.233 -0.0873,3e-4 -0.1662,6e-4 -0.2447,9e-4 -0.9037,1.3226 -0.9037,1.3226 -1.6327,2.6447 -1.1393,3.8509 -1.999,7.6921 -2.7451,11.6277 0.0428,2.1994 0.0941,4.3988 0.1457,6.5979 0.3858,5.3895 2.0707,37.2541 2.5878,45.1616 0.6845,3.4566 2.2028,5.4955 5.6653,6.5101 28.0893,0.1445 56.178702,0.2891 84.268302,0.4252 1.2135,-0.0817 1.5452,-0.1605 2.5124,-0.8711 0.4155,-1.0194 0.8311,-2.0384 1.2554,-3.0578 0.5412,-0.1139 0.8294,-0.1408 1.3712,-0.0391 0.6239,1.0846 0.9141,1.6614 0.9187,2.9293 -1.861,7.2173 -4.2996,14.1517 -7.9623,20.6765 -0.1743,0.0695 -0.3489,0.1392 -0.5145,0.2001 -0.002,-0.4745 -0.003,-0.9487 -0.005,-1.4317 -0.0873,2e-4 -0.1661,5e-4 -0.2446,8e-4 -0.3098,-1.1979 -0.3098,-1.1979 -0.6094,-1.9213 -0.0874,3e-4 -0.1659,6e-4 -0.2447,8e-4 -0.43,-0.5938 -0.43,-0.5938 -0.6151,-1.076 -0.6131,-0.455 -1.2172,-0.9102 -1.8215,-1.3652 -2.6158,-1.2415 -5.1384,-0.7843 -7.3945,0.9828 -1.946,0.4813 -1.946,0.4813 -3.3939,0.9692 -0.4008,0.2602 -1.2646,0.5995 -1.4287,1.0573 -0.7234,0.4595 -1.2172,1.643 -1.6599,2.3689 -2.4143,1.4142 -3.3866,3.1255 -3.1323,5.8847 0.2474,0.8014 0.4949,1.594 0.7421,2.3865 0.1145,2.6822 0.3543,3.8285 1.5942,6.2306 0.2046,1.0604 0.3563,1.9136 0.8575,2.8695 0.7364,0.8339 0.7364,0.8339 0.9827,1.3161 0.7518,2.6453 3.1156,4.1811 5.8329,4.4737 4.2174,-0.2991 5.7413,-1.624 7.8687,-5.116 0.3189,1.2668 -0.4283,2.3388 -0.9573,3.4707 -0.4782,0.6052 -0.4782,0.6052 -0.5383,0.847 -1.0105,0.7798 -1.9865,1.4043 -3.1464,1.9256 0.0266,0.095 0.0533,0.1896 0.0796,0.2758 2.6677,1.0862 4.43,-1.9474 5.5673,-3.9178 0.0961,-2e-4 0.2009,-5e-4 0.3058,-10e-4 0.3022,1.5171 -0.0439,2.4497 -0.9215,3.7466 -0.0777,0.2505 -0.1466,0.5008 -0.2155,0.7511 0.4542,0.007 0.9083,0.0142 1.3712,0.0213 0.8447,-0.7189 0.8447,-0.7189 1.2373,-0.8668 0.1579,0.2063 0.1579,0.2063 0.2202,0.5598 0.2795,-8e-4 0.559,-0.002 0.8473,-0.003 0.0156,-0.5522 0.0309,-1.1129 0.0553,-1.6736 -0.3702,-0.9561 -0.7404,-1.9123 -1.1021,-2.8684 -0.0281,-0.5607 -0.0476,-1.1211 -0.0669,-1.6818 -0.0964,-0.0255 -0.1925,-0.051 -0.2798,-0.0853 -0.1162,-0.75 -0.354,-1.2665 -0.697,-1.9468 -0.0873,2e-4 -0.1659,5e-4 -0.2447,8e-4 -3e-4,-0.1553 -0.001,-0.3192 -0.002,-0.483 -0.0873,3e-4 -0.1658,6e-4 -0.2443,8e-4 -0.1412,-0.3962 -0.2823,-0.7925 -0.4235,-1.1973 -0.8881,-1.679 -2.5217,-4.2007 -1.4542,-6.1277 1.8499,-0.5238 1.8499,-0.5238 2.5832,-0.6386 4.5831,-3.0776 6.3559,-8.0864 8.5051,-12.9155 1.8417,-5.2934 3.5785,-10.6041 5.2189,-15.9574 1.1508,-0.5731 1.7421,-1.3342 2.3845,-2.4233 1.6157,-0.04 1.6157,-0.04 3.0659,0.0757 1.1464,0.5567 -0.146,3.1141 1.4718,3.7037 31.3642,0.0128 31.3642,0.0128 71.7069,-0.1264 2.1294,-0.43 3.8831,-0.9275 5.599,-2.3221 1.3209,-1.9109 1.7237,-4.0513 2.1962,-6.2697 1.4471,-15.5908 2.6059,-31.2409 3.7211,-46.8652 -0.007,-1.984 -0.1449,-3.9155 -0.51,-5.8723 -2.9367,-8.0112 -2.9367,-8.0112 -3.791,-10.0525 -2.2108,-2.7005 -4.2812,-2.8403 -7.7148,-3.1475 -4.1927,-0.1063 -4.1927,-0.1063 -98.2865,-0.3771 -0.1049,-0.034 -0.2098,-0.0768 -0.3059,-0.1196 -0.0612,0.0434 -0.1221,0.0868 -0.1831,0.1213 -24.1064,-0.098 -48.213102,-0.1961 -72.311002,-0.2942" />
        <path
           inkscape:connector-curvature="0"
           id="path18565"
           style="fill:#ffffff;fill-opacity:1;fill-rule:evenodd;stroke:none"
           d="m 68.236258,188.41972 c -1.6322,0.3765 -3.0634,0.692 -4.2818,1.9038 -2.0826,3.854 -3.0084,8.7823 -3.7358,13.0975 0.0049,1.3195 0.0094,2.6393 0.0142,3.9588 0.8578,15.376 1.7243,30.7517 2.5912,46.1191 0.2574,1.1807 0.523001,2.2408 0.981,3.3517 0.7285,0.955 0.7285,0.955 0.790301,1.1963 0.3677,0.18 0.6044,0.4206 2.3108,1.3722 1.8185,0.468 1.8185,0.468 3.277699,0.7044 51.139602,0.3067 51.139602,0.3067 81.176402,0.324 2.0341,-0.2571 1.3932,-1.1605 1.3864,-3.0668 -0.1661,-0.0941 -0.3325,-0.1885 -0.4901,-0.2914 -34.4566,-0.1227 -34.4566,-0.1227 -78.442901,-0.4541 -3.3985,-0.2988 -5.3476,-0.6976 -6.3907,-4.2304 -0.1704,-1.2328 -0.3319,-2.4741 -0.4935,-3.7157 -1.819,-32.7611 -1.819,-32.7611 -2.0792,-39.6519 0.3075,-1.9417 0.8189,-3.0733 2.3516,-4.3812 0.4793,-0.2432 0.4793,-0.2432 2.6612,-0.7251 56.771101,-0.1956 113.588201,0.2642 170.360501,0.3702 1.1973,0.2115 3.2159,0.472 3.8488,1.6342 0.5857,0.1706 0.7906,1.3343 0.9499,1.8856 0.0128,3.5881 0.0128,3.5881 -0.3163,11.861 -0.6962,10.5423 -1.7181,30.3236 -1.9531,33.0761 -0.3279,1.1049 -0.7089,1.9774 -1.2557,2.997 -1.7258,0.9981 -3.0521,1.3476 -5.0344,1.5183 -21.5118,0.0742 -43.0415,0.002 -64.5542,-0.1398 -0.8033,0.0547 -1.5979,0.1092 -2.3927,0.1636 -0.2852,0.8722 -0.3237,2.2524 0.1332,3.0614 0.7163,0.0493 1.4326,0.0901 2.1577,0.1307 56.1178,0.2897 56.1178,0.2897 66.852,0.2525 3.5536,-0.3571 5.0284,-0.716 7.1493,-3.5608 1.0823,-2.7295 1.4567,-5.5168 1.9094,-8.3906 1.0415,-14.2611 2.0826,-28.5222 3.1241,-42.7921 -0.2628,-5.157 -1.9491,-10.2401 -4.2973,-14.8379 -0.4907,-0.4814 -0.4907,-0.4814 -0.5528,-0.7226 -1.8034,-1.2013 -2.9832,-1.3697 -5.1588,-1.595 -6.0528,0.0207 -12.0965,0.0416 -18.1406,0.0623 -51.4803,-0.3659 -102.9764,-0.309 -154.455801,-0.4853" />
        <path
           inkscape:connector-curvature="0"
           id="path18567"
           style="fill:#000000;fill-opacity:1;fill-rule:evenodd;stroke:none"
           d="m 68.990758,196.80092 c -1.3181,0.2546 -2.846199,0.3549 -4.005299,1.0316 0.988999,0.6176 3.816799,0.0473 5.039399,-0.0173 57.890602,0.18 115.701802,0.2395 173.575902,0.7214 0.4192,0.0417 3.0594,0.688 3.3987,0.3503 -0.9207,-1.0663 -1.7949,-1.2962 -3.1671,-1.5502 -58.2835,-0.1786 -116.5669,-0.3572 -174.841602,-0.5358" />
        <path
           inkscape:connector-curvature="0"
           id="path18569"
           style="fill:#000000;fill-opacity:1;fill-rule:evenodd;stroke:none"
           d="m 70.570559,198.95192 c -2.9333,0.424 -5.8686,0.2531 -8.6068,1.47 5e-4,0.1638 0.0011,0.3192 0.0017,0.4742 0.323099,-0.0181 0.646299,-0.0365 0.9694,-0.0549 5.1919,-1.3547 10.8717,-0.5636 16.1986,-0.9012 0.200999,0.0425 0.401899,0.0851 0.6029,0.1188 54.292001,0.1318 108.608901,-0.0207 162.893801,0.6372 1.8697,0.1661 3.7403,0.6168 5.5837,0.7572 -0.4859,-1.5855 -5.8054,-1.7051 -6.9152,-1.8307 -56.9032,-0.1403 -113.8246,-0.4442 -170.728102,-0.6706" />
        <path
           inkscape:connector-curvature="0"
           id="path18571"
           style="fill:#ffffff;fill-opacity:1;fill-rule:evenodd;stroke:none"
           d="m 73.510058,205.28982 c -1.4581,0.1863 -2.9166,0.1914 -4.3656,0.4377 -1.8746,0.938 -2.483499,1.6302 -2.9653,3.6675 0.0045,1.3195 0.0045,1.3195 0.155,1.828 0.279801,0.1455 0.279801,0.1455 1.4332,0.2622 14.499201,0.1917 14.499201,0.1917 74.564802,0.459 0.7688,0.0578 1.5378,0.1153 2.3065,0.1732 6e-4,0.1638 0.001,0.3277 0.002,0.483 -6.7337,0.0836 -6.7337,0.0836 -34.7006,0.0592 -0.4453,0.0448 -0.8903,0.0893 -1.3356,0.1253 2.5166,0.3881 4.9473,1.1129 7.283,2.1314 24.395,0.1488 24.395,0.1488 27.9063,0.2574 0.1312,0.0513 0.2624,0.1026 0.3937,0.1539 6e-4,0.1466 8e-4,0.2846 0.001,0.4227 -8.8299,0.0649 -17.6513,0.121 -26.4725,0.1774 0.3867,0.6455 0.9136,1.4805 1.7003,1.6673 2e-4,0.0865 5e-4,0.1642 8e-4,0.2416 1.8955,0.0538 3.7998,0.1077 5.7042,0.1615 39.1467,0.1239 78.3113,0.3252 117.4572,0.1902 0.1655,-0.0436 0.3314,-0.0961 0.506,-0.1482 0.199,-0.4924 0.1539,-0.9321 0.1519,-1.4669 -0.1837,-0.0942 -0.3674,-0.1971 -0.5513,-0.3 -4.8563,-0.0609 -9.7127,-0.1218 -14.5605,-0.1913 -0.0961,-0.0428 -0.1837,-0.0944 -0.2712,-0.1457 -0.0355,-0.1293 -0.0621,-0.2585 -0.0888,-0.3878 5.0483,-0.0779 10.105,-0.1556 15.1617,-0.2335 0.6015,-0.3297 0.7622,-1.7794 0.2628,-2.2434 -3.4855,-0.1431 -3.4855,-0.1431 -13.434,-0.2296 -0.3143,-0.0422 -0.629,-0.093 -0.9436,-0.1434 -0.0355,-0.1293 -0.0621,-0.2585 -0.0888,-0.3878 11.7644,-0.1012 11.7644,-0.1012 14.4366,-0.231 0.9765,-0.4865 0.4694,-3.1241 0.2917,-4.0204 -0.2461,-0.396 -0.4921,-0.7917 -0.7379,-1.1965 -2.764,-1.1288 -5.6279,-0.8776 -8.6153,-0.9879 -53.524,-0.3676 -107.0645,-0.4246 -160.587702,-0.5851" />
        <path
           inkscape:connector-curvature="0"
           id="path18573"
           style="fill:#000000;fill-opacity:1;fill-rule:evenodd;stroke:none"
           d="m 149.35526,209.70342 c -0.3399,0.2168 -0.322,0.3461 -0.4255,0.7172 -0.0382,1.527 -0.0765,3.0449 -0.1148,4.5632 -0.4966,0.3208 -0.5842,0.2953 -1.1871,0.1939 0.002,0.4745 0.003,0.9487 0.005,1.4144 0.508,0.4468 2.7003,0.4737 3.1354,-0.0453 -0.0505,-1.8799 -0.1009,-3.7687 -0.1423,-5.6577 -0.2838,-1.1375 -0.1962,-1.0947 -1.2708,-1.1857" />
        <path
           inkscape:connector-curvature="0"
           id="path18575"
           style="fill:#000000;fill-opacity:1;fill-rule:evenodd;stroke:none"
           d="m 196.79846,209.53982 c -0.9241,0.4947 -2.503,1.0265 -2.2978,2.285 0.3671,0.0247 0.7339,0.0491 1.1007,0.0652 0.6021,-0.2004 3.2961,-1.5466 2.5087,0.5003 -0.8725,0.3048 -1.1339,0.4525 -1.1044,1.3924 0.8844,0.6265 1.1466,0.6602 0.993,1.7215 -0.8807,0.4085 -1.1086,0.1332 -1.8961,-0.2608 -0.3668,0.0618 -0.7333,0.1233 -1.0999,0.1763 0.1285,1.7504 1.5259,1.7544 3.045,1.6112 1.874,-1.1106 1.4967,-1.6095 1.4893,-3.645 1.2935,-2.2901 -0.3449,-3.6992 -2.7385,-3.8461" />
        <path
           inkscape:connector-curvature="0"
           id="path18577"
           style="fill:#000000;fill-opacity:1;fill-rule:evenodd;stroke:none"
           d="m 171.92526,209.98772 c -1.1633,1.9621 1.0919,2.5149 2.3723,3.9594 -0.008,0.3192 -0.006,0.6384 -0.005,0.9488 -0.7234,0.4944 -1.0993,0.4093 -1.5733,-0.2792 -1.0661,-0.1341 -1.4507,-0.2795 -1.4468,0.9022 1.5551,2.5909 4.8614,1.4755 4.851,-1.483 -0.3087,-0.9046 -0.853,-1.6359 -1.3885,-2.4276 0.4366,-0.0618 0.8816,-0.1239 1.3269,-0.1945 0.0329,-0.595 0.1622,-1.0528 -0.4852,-1.3697 -1.2229,-0.013 -2.437,-0.0346 -3.6511,-0.0564" />
        <path
           inkscape:connector-curvature="0"
           id="path18579"
           style="fill:#000000;fill-opacity:1;fill-rule:evenodd;stroke:none"
           d="m 223.85856,210.05032 c -0.218,0.1129 -0.4272,0.2257 -0.6364,0.33 -0.095,0.3368 -0.1899,0.6647 -0.2846,0.9927 -1.1775,0.5131 -2.5775,-0.2412 -3.6317,0.4785 0.003,0.966 -0.0392,1.3025 0.5139,2.0939 2.9185,2.871 2.9185,2.871 3.3213,3.1196 0.4629,-0.001 0.9258,-0.0117 1.3972,-0.0219 0.1301,-0.2678 0.1301,-0.2678 0.3107,-3.5719 0.3753,-0.0876 0.7503,-0.1752 1.1257,-0.2628 0.1201,-0.6128 0.0932,-0.811 -0.1273,-1.4142 -0.3322,-0.1108 -0.6645,-0.2219 -0.9882,-0.3416 -0.0799,-0.3962 -0.1599,-0.8016 -0.2313,-1.2067 -0.2622,-0.0595 -0.5156,-0.1275 -0.7693,-0.1956" />
        <path
           inkscape:connector-curvature="0"
           id="path18581"
           style="fill:#000000;fill-opacity:1;fill-rule:evenodd;stroke:none"
           d="m 154.34166,211.96322 c -0.288,0.0442 -0.5675,0.0881 -0.8467,0.1236 6e-4,0.1641 0.001,0.3279 0.002,0.483 4.8912,0.0436 9.7827,0.087 14.6826,0.1307 0.2005,-0.1216 0.4009,-0.243 0.6013,-0.3643 -0.2455,-0.2407 -0.2455,-0.2407 -0.665,-0.36 -4.5941,-0.001 -9.1883,-0.003 -13.7739,-0.013" />
        <path
           inkscape:connector-curvature="0"
           id="path18583"
           style="fill:#000000;fill-opacity:1;fill-rule:evenodd;stroke:none"
           d="m 178.72756,212.00002 c -0.1825,0.2333 -0.1825,0.2333 -0.1641,0.5352 0.1312,0.0428 0.2625,0.0853 0.3935,0.1281 4.5943,0.0272 9.2769,0.313 13.852,-0.1083 -0.0266,-0.1292 -0.0533,-0.267 -0.0802,-0.405 -4.6729,-0.0443 -9.337,-0.0973 -14.0012,-0.15" />
        <path
           inkscape:connector-curvature="0"
           id="path18585"
           style="fill:#ffffff;fill-opacity:1;fill-rule:evenodd;stroke:none"
           d="m 66.618159,212.50712 c -0.0873,0.0434 -0.1658,0.0868 -0.244301,0.1216 0.0201,0.7331 -0.0998,1.389 0.3566,1.9826 1.938901,0.002 1.938901,0.002 2.4452,-0.0774 0.0065,-0.6469 0.0215,-1.3025 0.0368,-1.9582 -0.8648,-0.0229 -1.729699,-0.0456 -2.594299,-0.0686" />
        <path
           inkscape:connector-curvature="0"
           id="path18587"
           style="fill:#ffffff;fill-opacity:1;fill-rule:evenodd;stroke:none"
           d="m 73.902358,212.48192 c -0.3741,0.4587 -0.3197,0.976 -0.7812,1.4 3e-4,0.1123 9e-4,0.2243 0.0011,0.3277 0.4204,0.2832 0.7353,0.4635 1.2677,0.3062 0.0326,-0.6384 0.074,-1.2768 0.1154,-1.9151 -0.201,-0.0338 -0.402,-0.0763 -0.603,-0.1188" />
        <path
           inkscape:connector-curvature="0"
           id="path18589"
           style="fill:#ffffff;fill-opacity:1;fill-rule:evenodd;stroke:none"
           d="m 83.483458,212.44902 c -0.9317,0.7881 -0.5556,0.9335 -0.4816,2.158 0.2798,0.0681 0.5596,0.1273 0.8394,0.1868 5.2231,0.0253 10.455,0.1364 15.6775,-0.0541 0.680102,-0.3214 1.368902,-0.6429 2.057702,-0.9643 4.521,-0.9905 4.521,-0.9905 4.5816,-1.0681 -7.556002,-0.2846 -15.110902,-0.2671 -22.674602,-0.2583" />
        <path
           inkscape:connector-curvature="0"
           id="path18591"
           style="fill:#000000;fill-opacity:1;fill-rule:evenodd;stroke:none"
           d="m 206.39746,212.02522 c -1.2578,0.0477 -2.5152,0.095 -3.7642,0.1338 0.027,0.1724 0.0539,0.3447 0.0893,0.5086 0.1313,0.0513 0.2625,0.1026 0.4023,0.1451 4.166,-0.0142 8.3321,-0.0286 12.4985,-0.0431 0.1219,-0.0433 0.2528,-0.0955 0.3835,-0.1479 0.0258,-0.1293 0.0604,-0.2588 0.095,-0.3884 -3.2409,-0.0663 -6.4727,-0.1329 -9.7044,-0.2081" />
        <path
           inkscape:connector-curvature="0"
           id="path18593"
           style="fill:#ffffff;fill-opacity:1;fill-rule:evenodd;stroke:none"
           d="m 78.505558,212.58682 c -0.5482,0.5972 -1.3255,0.5913 -2.1112,0.68 -0.0253,0.2591 -0.0508,0.5179 -0.0672,0.7679 0.5593,0.0587 1.1183,0.1171 1.6863,0.1755 0.3677,0.2489 0.464,0.3002 0.909401,0.3418 0.268699,-0.5876 0.1179,-1.2685 -0.0065,-1.889 -0.139799,-0.0252 -0.279799,-0.0507 -0.410799,-0.0762" />
        <path
           inkscape:connector-curvature="0"
           id="path18595"
           style="fill:#ffffff;fill-opacity:1;fill-rule:evenodd;stroke:none"
           d="m 71.354359,213.20672 c -0.0165,0.2242 -0.0332,0.44 -0.0499,0.6557 0.1746,0.0252 0.3495,0.0504 0.5329,0.0672 -0.0706,-0.2155 -0.1324,-0.4309 -0.1945,-0.6463 -0.0961,-0.0256 -0.1922,-0.0511 -0.2885,-0.0766" />
        <path
           inkscape:connector-curvature="0"
           id="path18597"
           style="fill:#ffffff;fill-opacity:1;fill-rule:evenodd;stroke:none"
           d="m 221.80886,213.29182 c 0.2032,0.629 0.4838,0.9731 0.9223,1.4805 0.1134,-6e-4 0.2271,-9e-4 0.3405,-0.001 -0.019,-0.4915 -0.0383,-0.9831 -0.0488,-1.4834 -0.4104,10e-4 -0.8124,0.003 -1.214,0.004" />
        <path
           inkscape:connector-curvature="0"
           id="path18599"
           style="fill:#ffffff;fill-opacity:1;fill-rule:evenodd;stroke:none"
           d="m 105.45936,215.12462 c -1.2566,0.3062 -2.5135,0.6126 -3.7613,0.9188 -3.724402,1.4533 -6.475702,3.895 -8.420302,7.2654 -2.9809,6.6691 -1.9723,12.7636 3.0427,18.1718 2.287,2.0707 4.762202,3.0799 7.674202,4.0445 4.2543,0.2701 7.1703,-0.1023 10.9103,-2.0818 1.4377,-0.9536 1.4377,-0.9536 1.6906,-1.0321 0.0595,-0.4833 1.0355,-1.1078 1.4012,-1.4366 1.1219,-1.3753 1.1219,-1.3753 2.6251,-3.5628 0.3983,-0.9672 0.8053,-1.9347 1.2124,-2.9109 0.4986,-2.3131 0.6398,-4.375 0.4655,-6.738 -1.0282,-4.214 -2.3894,-6.2881 -5.3873,-9.3569 -2.7573,-1.6897 -4.9878,-2.6827 -8.1689,-3.2235 -1.1007,-0.0136 -2.1926,-0.0357 -3.2842,-0.0579" />
        <path
           inkscape:connector-curvature="0"
           id="path18601"
           style="fill:#000000;fill-opacity:1;fill-rule:evenodd;stroke:none"
           d="m 154.84176,215.07532 c -0.4451,0.0445 -0.8904,0.0893 -1.3357,0.1253 0.0266,0.1724 0.0536,0.3447 0.089,0.5171 2.4636,0.1383 2.4636,0.1383 14.7178,0.2168 0.1221,-0.0436 0.2531,-0.0958 0.3838,-0.148 0.008,-0.1295 0.0167,-0.2588 0.0334,-0.3968 -0.0524,-0.0431 -0.1049,-0.0947 -0.1576,-0.1463 -4.5516,-0.2948 -9.1627,-0.1582 -13.7307,-0.1681" />
        <path
           inkscape:connector-curvature="0"
           id="path18603"
           style="fill:#ffffff;fill-opacity:1;fill-rule:evenodd;stroke:none"
           d="m 66.995458,215.49882 c -0.1479,0.1213 -0.2962,0.2424 -0.4354,0.3552 0.0017,0.483 -0.126399,1.277 0.302801,1.6291 9.3807,0.0884 18.761399,0.1769 28.1508,0.2653 0.8904,-0.15 2.075599,-0.9561 2.3168,-1.8712 -0.4893,-0.0501 -0.9697,-0.1088 -1.450501,-0.1675 -20.892799,-0.1868 -28.3952,-0.1437 -28.8845,-0.2109" />
        <path
           inkscape:connector-curvature="0"
           id="path18605"
           style="fill:#000000;fill-opacity:1;fill-rule:evenodd;stroke:none"
           d="m 179.47226,215.11102 c -0.2968,0.0786 -0.5936,0.1489 -0.8901,0.2189 6e-4,0.1465 9e-4,0.2846 0.001,0.4226 0.0876,0.0513 0.1837,0.1026 0.2801,0.1454 4.1224,0.029 8.2451,0.0579 12.3763,0.0783 0.489,-0.0536 0.8825,0.006 1.1778,-0.3923 -0.0351,-0.0862 -0.0618,-0.1809 -0.0881,-0.2756 -4.2888,-0.0629 -8.5774,-0.1258 -12.8574,-0.1973" />
        <path
           inkscape:connector-curvature="0"
           id="path18607"
           style="fill:#000000;fill-opacity:1;fill-rule:evenodd;stroke:none"
           d="m 202.88896,215.27182 c -0.3053,0.1564 -0.375,0.1737 -0.4873,0.4847 0.2795,0.0595 0.5593,0.1188 0.8391,0.1783 6.7603,0.0975 14.6996,0.07 15.302,-0.001 0.0691,-0.2416 0.0691,-0.2416 0.007,-0.4054 -0.367,-0.1193 -0.367,-0.1193 -2.8218,-0.2316 -4.2971,0.0147 -8.542,0.0207 -12.8393,-0.0249" />
        <path
           inkscape:connector-curvature="0"
           id="path18609"
           style="fill:#ffffff;fill-opacity:1;fill-rule:evenodd;stroke:none"
           d="m 67.730558,218.37712 c -0.296499,0.07 -0.593299,0.1401 -0.881299,0.2101 -0.0522,0.0949 -0.1043,0.1814 -0.1477,0.2678 1.296,23.12 1.296,23.12 1.9329,32.8298 0.1585,0.4048 0.326,0.801 0.4933,1.1973 0.7282,0.9547 0.7282,0.9547 0.7903,1.196 0.367,0.0592 0.6125,0.2914 1.828,0.7701 0.4808,0.0845 0.9615,0.1605 1.4508,0.2364 26.3866,0.1764 52.843701,0.62 79.236801,0.2013 0.0953,-0.1729 0.1996,-0.3543 0.3036,-0.5357 0.5035,-3.3917 1.0809,-5.5931 3.1235,-8.4033 2.1518,-1.5772 3.7559,-2.3933 6.482,-2.1184 3.7327,0.9448 5.6781,2.7666 6.7564,6.3853 0.2591,4.0791 0.2591,4.0791 0.4093,4.5874 0.0876,0.0515 0.1752,0.1028 0.2713,0.1457 20.2025,0.0943 40.4047,0.1885 60.607,0.2741 2.7249,-0.0871 5.4584,-0.1741 8.1918,-0.2699 0.5233,-0.2174 1.0466,-0.4433 1.5784,-0.6695 0.2168,-0.432 0.4337,-0.8725 0.6593,-1.3133 0.1162,-1.6736 0.2327,-3.356 0.3489,-5.0383 -0.1576,-0.146 -0.1576,-0.146 -1.0315,-0.2982 -9.5468,-0.0448 -19.0933,-0.0896 -28.6398,-0.1344 -0.4904,-0.4037 -0.1347,-3.4756 -0.0763,-4.2605 0.1831,-0.0955 0.3662,-0.191 0.5494,-0.2953 9.7035,0.0184 19.4162,0.0453 29.1191,-0.1004 0.1659,-0.0436 0.3402,-0.0958 0.5148,-0.1482 0.0859,-0.4488 0.1715,-0.8978 0.2659,-1.3553 1.258,-22.1712 1.258,-22.1712 1.1957,-22.5331 -0.8561,-0.0488 -1.7037,-0.1063 -2.5509,-0.1639 -39.8277,-6e-4 -79.6737,-0.2687 -119.5104,-0.3124 -0.0958,0.0519 -0.1916,0.1041 -0.2789,0.1562 -0.008,0.095 -0.0168,0.1812 -0.0253,0.2673 0.3252,0.5165 0.65,1.033 0.9752,1.5492 2.7827,6.4768 2.9046,13.7732 -1.3893,19.6619 -2.2019,2.1898 -4.0391,3.8435 -6.8289,5.2333 -1.1342,0.4091 -2.268,0.8099 -3.3934,1.2104 -2.7941,0.2512 -2.7941,0.2512 -4.0079,0.2554 -1.582,-0.3138 -3.164,-0.6273 -4.7373,-0.9411 -1.925002,-0.9422 -3.519202,-2.2391 -5.348102,-3.2763 -3e-4,-0.0776 -6e-4,-0.1553 -8e-4,-0.2415 -2.0475,-1.0023 -3.403,-3.9906 -4.449,-5.8586 -0.8915,-2.6708 -0.987,-4.9734 -0.997,-7.7851 0.2311,-1.3119 0.4712,-2.6322 0.711,-3.9529 0.9099,-2.0472 1.8813,-3.905 3.1325,-5.7637 -0.0181,-0.1638 -0.0275,-0.3365 -0.0368,-0.5088 -0.3756,-0.0505 -0.7515,-0.1009 -1.1183,-0.1514 -8.4985,-0.0657 -16.9883,-0.1312 -25.4783,-0.2055" />
        <path
           inkscape:connector-curvature="0"
           id="path18611"
           style="fill:#000000;fill-opacity:1;fill-rule:evenodd;stroke:none"
           d="m 105.23006,219.44662 c -4.1888,1.0324 -7.160902,2.7678 -9.129802,6.6989 -1.5313,4.1283 -1.087999,8.5084 1.8326,11.9052 1.2792,1.1341 2.137302,1.7351 2.803402,2.3882 2.2326,1.5622 4.9836,1.4751 7.6125,1.4661 1.3527,-0.3671 2.495,-0.8541 3.7593,-1.4449 5.2288,-3.3128 6.923,-8.3213 5.0859,-14.1199 -0.976,-1.7994 -2.0483,-3.7794 -3.9212,-4.7908 -0.009,-0.0689 -0.0178,-0.1378 -0.0269,-0.2155 -2.8089,-1.4825 -4.8713,-1.8119 -8.0158,-1.8873" />
        <path
           inkscape:connector-curvature="0"
           id="path18613"
           style="fill:#000000;fill-opacity:1;fill-rule:evenodd;stroke:none"
           d="m 148.54456,220.01332 c -1.1959,0.2284 -2.2598,0.7064 -3.3936,1.1503 -1.5687,0.9629 -1.5687,0.9629 -1.8131,1.0238 3e-4,0.0865 6e-4,0.1642 9e-4,0.2416 -1.9341,1.3351 -2.6175,3.2522 -3.3262,5.3937 0.003,0.8884 0.006,1.7768 0.01,2.6652 0.5157,2.5857 1.397,4.8254 3.5952,6.5083 0.8578,0.4802 0.8578,0.4802 1.0942,0.7121 2.3794,1.0443 4.3458,1.3393 6.9384,0.9334 4.85,-1.7416 6.9429,-5.104 6.925,-10.167 -0.1684,-0.6724 -0.328,-1.353 -0.4876,-2.0339 -1.1539,-2.8165 -2.7323,-4.5535 -5.5227,-5.7773 -1.4077,-0.3574 -2.5702,-0.5947 -4.0201,-0.6502" />
        <path
           inkscape:connector-curvature="0"
           id="path18615"
           style="fill:#ffffff;fill-opacity:1;fill-rule:evenodd;stroke:none"
           d="m 105.47746,220.28262 c -7.199702,1.6894 -10.579401,6.7036 -8.763002,14.0635 0.493,1.0505 1.5662,3.2204 2.7547,3.4492 -0.0745,-1.3453 0.604702,-1.8737 -0.2026,-3.0008 -0.7765,-2.1795 -1.3414,-3.8942 -1.1138,-6.2064 0.8541,-2.9787 2.149002,-4.8634 4.911902,-6.4341 3.6374,-1.3238 5.8649,-1.3054 9.4003,0.6661 1.6911,1.495 2.6736,2.6819 3.3973,4.8702 0.9085,4.9822 -1.5486,9.1395 -6.3723,10.8641 -0.2438,0.2424 -0.2438,0.2424 -1.0324,1.9701 1.1095,0.091 4.1102,-0.9456 4.4915,-1.87 3.4302,-3.0909 4.5981,-6.3037 3.7695,-10.8723 -0.2106,-0.3183 -0.4127,-0.6367 -0.6148,-0.9553 -0.3376,-1.6291 -0.9428,-2.3771 -2.0044,-3.7017 -0.2534,-0.0684 -0.2534,-0.0684 -2.425,-1.5962 -2.187,-0.9584 -3.856,-1.177 -6.1969,-1.2464" />
        <path
           inkscape:connector-curvature="0"
           id="path18617"
           style="fill:#000000;fill-opacity:1;fill-rule:evenodd;stroke:none"
           d="m 173.42026,220.28992 c -3.2556,0.6667 -4.9464,1.673 -7.1912,4.0527 -2.5327,4.9856 -2.0356,9.7535 2.501,13.2829 5.0573,2.4752 9.0383,1.9613 12.6998,-2.3811 1.8933,-3.0946 2.3638,-5.8819 1.1636,-9.3626 -0.7747,-1.7308 -1.7651,-2.6764 -3.1759,-3.9824 -0.866,-0.394 -1.7323,-0.7962 -2.5895,-1.1987 -1.1358,-0.1341 -2.2719,-0.2682 -3.4078,-0.4108" />
        <path
           inkscape:connector-curvature="0"
           id="path18619"
           style="fill:#000000;fill-opacity:1;fill-rule:evenodd;stroke:none"
           d="m 221.83296,220.12302 c -4.7489,0.7237 -7.4036,3.3375 -8.6537,7.922 0.0134,3.8208 0.658,5.7852 3.2358,8.5796 1.3479,0.8405 1.3479,0.8405 1.5758,1.0726 4.0158,1.927 7.5166,1.4576 11.0097,-1.1764 3.3149,-3.634 4.051,-7.8284 1.503,-12.1583 -0.2279,-0.2061 -0.2279,-0.2061 -0.4831,-0.7229 -1.7702,-1.667 -3.1098,-2.6112 -5.5051,-3.2241 -0.9,-0.0918 -1.7912,-0.1922 -2.6824,-0.2925" />
        <path
           inkscape:connector-curvature="0"
           id="path18621"
           style="fill:#000000;fill-opacity:1;fill-rule:evenodd;stroke:none"
           d="m 197.92836,220.32622 c -0.489,0.0621 -0.9689,0.1239 -1.4491,0.1775 -3.1065,0.8557 -5.1191,2.2427 -6.7252,4.9912 -0.4323,1.2954 -0.917,2.5132 -1.0868,3.8594 0.1228,0.1806 0.1264,1.1985 0.6239,3.5946 0.6089,1.7402 1.8445,2.9262 3.1071,4.2415 5.1826,3.3891 10.9162,2.0582 14.129,-3.223 1.4006,-4.0414 1.3201,-7.06 -1.3825,-10.5956 -2.2779,-2.0277 -4.1672,-2.7372 -7.2164,-3.0456" />
        <path
           inkscape:connector-curvature="0"
           id="path18623"
           style="fill:#ffffff;fill-opacity:1;fill-rule:evenodd;stroke:none"
           d="m 148.67066,221.09102 c -0.646,0.1488 -1.2917,0.2891 -1.9374,0.4295 -4.7614,2.1123 -6.6617,5.6551 -5.2461,10.7563 0.22,0.5168 0.449,1.0335 0.6778,1.5418 0.5768,0.0669 0.7642,1.1704 1.1656,1.0913 -0.5009,-0.8436 -0.993,-1.6872 -1.4851,-2.5393 -0.4697,-1.9649 -0.7413,-7.0874 1.7881,-8.0969 1.3725,-2.1177 4.0257,-2.6359 6.3578,-2.6438 0.6469,0.1615 1.2937,0.3234 1.9406,0.4762 2.1342,0.864 3.3177,2.1019 4.6953,3.8911 0.4246,1.5511 0.6211,2.7062 0.6265,4.2846 -0.2413,0.8807 -0.4828,1.7614 -0.7243,2.6334 -0.4864,0.7693 -0.9728,1.5386 -1.4593,2.3079 0.0788,0.017 0.1574,0.0253 0.2447,0.0335 0.0697,-0.1123 0.1392,-0.2245 0.2086,-0.3456 0.0785,-0.0175 0.157,-0.0351 0.2356,-0.0612 1.5539,-2.6878 2.1668,-4.6823 1.4833,-7.8024 -0.4135,-0.8438 -0.8271,-1.6962 -1.2319,-2.5489 -0.6222,-0.6361 -1.2447,-1.2722 -1.8669,-1.917 -1.6461,-1.1243 -3.5161,-1.3938 -5.4729,-1.4905" />
        <path
           inkscape:connector-curvature="0"
           id="path18625"
           style="fill:#ffffff;fill-opacity:1;fill-rule:evenodd;stroke:none"
           d="m 221.83606,220.95952 c -1.6932,0.4286 -1.6932,0.4286 -2.5487,0.5437 -4.4447,2.7235 -6.6996,7.2079 -4.132,12.1067 1.2634,1.6087 3.2547,4.0428 5.5253,3.9487 -0.7175,-0.3081 -1.4346,-0.616 -2.1433,-0.9329 -3.7568,-2.8247 -4.9147,-6.6588 -2.9205,-10.849 2.2629,-2.2504 3.8474,-3.653 7.1742,-3.9147 6.3439,0.8405 9.2704,5.9108 6.8981,11.7754 -1.0168,1.4528 -2.3304,2.9753 -4.0839,3.5592 0.009,0.0431 0.0179,0.0862 0.0354,0.1208 6.5328,-2.5759 7.221,-10.4962 2.0702,-14.7478 -2.0911,-1.0625 -3.5334,-1.4023 -5.8748,-1.6101" />
        <path
           inkscape:connector-curvature="0"
           id="path18627"
           style="fill:#ffffff;fill-opacity:1;fill-rule:evenodd;stroke:none"
           d="m 173.42396,221.36802 c -2.8893,0.4413 -4.6499,1.4479 -6.5903,3.5676 -0.3293,0.6999 -0.6587,1.391 -0.9796,2.0821 -1.078,3.8766 0.1207,6.986 3.2043,9.5114 0.0785,-0.009 0.157,-0.0179 0.2443,-0.0355 -3.4007,-3.3349 -4.3517,-8.0495 -1.0902,-11.9163 2.2649,-1.7155 3.7205,-2.5401 6.6552,-2.5503 2.9021,0.7061 5.1063,1.5868 6.3913,4.3597 0.2038,0.8447 0.4076,1.6807 0.6202,2.5166 0.0116,3.2774 -0.9428,5.1094 -3.1442,7.437 0.07,0.017 0.1397,0.034 0.2098,0.051 1.9074,-1.5072 2.5993,-3.4503 3.2989,-5.6954 -0.0116,-3.2689 -0.7072,-4.8622 -2.821,-7.3562 -2.0052,-1.4507 -3.5782,-1.6781 -5.9987,-1.9717" />
        <path
           inkscape:connector-curvature="0"
           id="path18629"
           style="fill:#ffffff;fill-opacity:1;fill-rule:evenodd;stroke:none"
           d="m 197.20696,221.28602 c -2.6266,0.7076 -3.873,1.402 -5.8669,3.2117 -1.8652,3.5254 -2.2649,6.6231 -0.0862,10.1608 0.6574,0.6792 2.4378,2.8207 3.4067,2.5843 -3.0299,-2.2408 -4.1564,-4.6692 -4.1698,-8.3693 0.9471,-3.9104 2.4537,-5.1145 6.1166,-6.6798 3.1261,-0.2523 5.9398,0.1176 8.0536,2.6634 1.0902,2.0316 1.6018,3.4186 1.6097,5.7303 -0.2392,1.4411 -0.4818,2.0372 -0.4714,2.5287 1.3595,-3.3772 0.9326,-5.5493 -0.8163,-8.6224 -0.3586,-0.0765 -1.4188,-1.0301 -1.4638,-1.4354 -0.2447,-0.0681 -0.2447,-0.0681 -0.9017,-0.5834 -1.933,-0.7781 -3.2967,-1.1186 -5.4105,-1.1889" />
        <path
           inkscape:connector-curvature="0"
           id="path18631"
           style="fill:#ffffff;fill-opacity:1;fill-rule:evenodd;stroke:none"
           d="m 106.21056,222.55712 c -2.8982,0.4929 -4.5876,1.8445 -6.0027,4.3248 -0.241802,0.8028 -0.483302,1.6058 -0.716302,2.4001 0.0666,1.5868 0.2101,2.6473 0.756902,4.1289 0.9008,0.3246 0.881,-0.3393 0.9485,-1.021 -0.7682,-2.3176 -0.495,-4.1298 0.5629,-6.3071 0.0697,-0.009 0.1398,-0.0176 0.2183,-0.0351 0.3546,-0.9156 1.3569,-1.5574 2.1673,-2.0863 5.5296,-2.2269 10.5994,1.3609 9.4241,7.4284 -1.0494,2.0997 -1.745,2.956 -3.7409,4.205 -0.1213,0.2418 -0.1213,0.2418 -0.1012,1.0179 1.7382,-0.006 2.9197,-1.7782 3.8673,-3.0493 1.423,-2.6271 1.3116,-4.4982 0.0706,-7.2456 -0.3424,-0.4904 -0.7999,-1.4377 -1.3598,-1.6512 -0.009,-0.0691 -0.0178,-0.138 -0.0269,-0.2157 -0.2449,-0.068 -0.928,-0.6349 -1.8119,-1.1236 -1.4689,-0.4434 -2.7363,-0.6979 -4.2562,-0.7702" />
        <path
           inkscape:connector-curvature="0"
           id="path18633"
           style="fill:#ffffff;fill-opacity:1;fill-rule:evenodd;stroke:none"
           d="m 148.55586,223.24792 c -4.5104,1.4128 -6.5707,4.1627 -5.6194,8.9033 1.8417,4.608 6.5365,5.8598 10.6841,3.1113 2.2708,-2.5092 2.8307,-4.6933 1.9196,-7.9764 -1.5568,-3.0739 -3.638,-3.7567 -6.9843,-4.0382" />
        <path
           inkscape:connector-curvature="0"
           id="path18635"
           style="fill:#ffffff;fill-opacity:1;fill-rule:evenodd;stroke:none"
           d="m 221.84396,223.23662 c -0.9425,0.2449 -1.7887,0.5065 -2.6694,0.9062 -1.2107,0.9615 -1.2107,0.9615 -1.5681,1.1441 -0.0777,0.2503 -0.3127,0.4753 -1.2759,2.2728 -0.9144,3.1858 -0.0144,5.8135 2.3956,8.1082 3.2723,1.5843 5.472,1.2404 8.4963,-0.5902 0.0433,-0.0949 0.0867,-0.1899 0.1298,-0.2937 0.0785,-0.0172 0.157,-0.0436 0.2355,-0.0697 2.6499,-3.9767 2.1005,-6.2175 -0.4019,-9.9436 -1.8641,-1.0457 -3.2278,-1.4466 -5.3419,-1.5341" />
        <path
           inkscape:connector-curvature="0"
           id="path18637"
           style="fill:#ffffff;fill-opacity:1;fill-rule:evenodd;stroke:none"
           d="m 173.18756,223.64592 c -0.9422,0.2707 -3.3681,0.8742 -3.7488,1.9278 -0.0873,3e-4 -0.1658,6e-4 -0.2447,9e-4 -0.4691,0.7174 -0.9382,1.4349 -1.3986,2.1523 -1.0284,3.0657 -0.3617,6.4012 2.4486,8.2718 3.8494,1.7722 7.1045,0.9762 9.5734,-2.2669 1.9863,-3.9571 0.7138,-8.0929 -3.5807,-9.7945 -1.04,-0.1948 -1.9922,-0.252 -3.0492,-0.2914" />
        <path
           inkscape:connector-curvature="0"
           id="path18639"
           style="fill:#ffffff;fill-opacity:1;fill-rule:evenodd;stroke:none"
           d="m 197.09266,223.56342 c -0.445,0.1397 -0.89,0.2792 -1.3348,0.4187 -1.5687,0.9629 -1.8301,1.2138 -2.0568,1.2665 -0.0777,0.2503 -0.7302,1.0117 -1.6328,2.6362 -0.2415,0.8374 -0.2415,0.8374 -0.3605,1.7952 0.015,4.261 1.961,6.2121 6.1049,7.3624 0.7858,-0.1151 1.5716,-0.2384 2.3658,-0.362 5.156,-1.6823 5.9349,-6.1789 3.8407,-10.51 -0.0785,-0.008 -0.1485,-0.0167 -0.2183,-0.0252 -0.1057,-0.2585 -0.4388,-0.5593 -0.5094,-0.809 -0.0788,-0.008 -0.1485,-0.0168 -0.2185,-0.0253 -0.009,-0.0688 -0.0179,-0.1377 -0.0269,-0.2154 -0.2537,-0.068 -0.2537,-0.068 -0.9281,-0.6349 -1.8108,-0.7787 -3.0776,-0.8521 -5.0253,-0.8972" />
        <path
           inkscape:connector-curvature="0"
           id="path18641"
           style="fill:#ffffff;fill-opacity:1;fill-rule:evenodd;stroke:none"
           d="m 106.58276,224.10822 c -3.4373,1.0987 -5.9176,3.6 -4.4629,7.4506 0.2007,-9e-4 0.4017,-0.001 0.6027,-0.002 0.0422,-0.3795 1.0873,-1.1851 1.3833,-1.5485 -0.1216,-2.2508 -0.1078,-3.2772 1.7566,-4.6293 2.5568,-0.6384 3.8778,-0.0479 5.3782,1.9567 0.5034,1.5336 0.0224,3.8209 -1.5996,4.5511 -0.015,0.716 -0.1956,1.5358 0.0776,2.2076 1.7555,-0.006 2.691,-2.2085 3.1227,-3.6332 -0.0142,-4.0453 -2.0129,-6.1083 -6.2586,-6.3527" />
        <path
           inkscape:connector-curvature="0"
           id="path18643"
           style="fill:#ffffff;fill-opacity:1;fill-rule:evenodd;stroke:none"
           d="m 106.94836,226.26342 c -0.9065,0.4515 -2.9284,1.7524 -1.7013,2.9557 1.7904,-0.006 1.2223,-2.5745 3.3333,-0.9085 0.004,1.0868 -0.4201,2.2181 0.9422,2.2135 1.4811,-1.0488 0.7858,-2.573 -0.1962,-3.6564 -0.9011,-0.4195 -1.3819,-0.5473 -2.378,-0.6043" />
        <path
           inkscape:connector-curvature="0"
           id="path18645"
           style="fill:#ffffff;fill-opacity:1;fill-rule:evenodd;stroke:none"
           d="m 188.92126,229.57772 c 3e-4,0.0776 3e-4,0.0776 0,0" />
        <path
           inkscape:connector-curvature="0"
           id="path18647"
           style="fill:#ffffff;fill-opacity:1;fill-rule:evenodd;stroke:none"
           d="m 106.11556,230.34612 c -1.273,0.5477 -2.7453,1.6396 -3.1422,3.0036 1.8343,0.0284 3.6074,0.0998 4.9575,1.4925 0.0961,-3e-4 0.2007,-0.009 0.3056,-0.0185 0.1165,-1.6217 0.2251,-3.0367 -0.8974,-4.3095 -0.2444,0.0182 -0.4893,-0.1017 -1.2235,-0.1681" />
        <path
           inkscape:connector-curvature="0"
           id="path18649"
           style="fill:#ffffff;fill-opacity:1;fill-rule:evenodd;stroke:none"
           d="m 103.45866,234.78862 c -2.3893,1.0261 -3.1892,2.0378 -1.9755,4.492 1.9163,0.9335 4.4683,1.425 6.1654,-0.2627 0.8708,-3.2205 -1.3507,-4.127 -4.1899,-4.2293" />
        <path
           inkscape:connector-curvature="0"
           id="path18651"
           style="fill:#ffffff;fill-opacity:1;fill-rule:evenodd;stroke:none"
           d="m 169.47756,236.59652 c 3e-4,0.0346 3e-4,0.0777 6e-4,0.1208 0.0348,0 0.0785,-3e-4 0.1222,-3e-4 0,-0.0346 -3e-4,-0.0777 -3e-4,-0.1208 -0.0349,0 -0.0786,3e-4 -0.1225,3e-4" />
        <path
           inkscape:connector-curvature="0"
           id="path18653"
           style="fill:#ffffff;fill-opacity:1;fill-rule:evenodd;stroke:none"
           d="m 225.29146,237.36162 c 0,0.0346 3e-4,0.0777 6e-4,0.1207 0.0348,0 0.0785,-2e-4 0.1221,-5e-4 -2e-4,-0.0343 -2e-4,-0.0774 -5e-4,-0.1208 -0.0349,3e-4 -0.0785,3e-4 -0.1222,6e-4" />
        <path
           inkscape:connector-curvature="0"
           id="path18655"
           style="fill:#ffffff;fill-opacity:1;fill-rule:evenodd;stroke:none"
           d="m 195.32556,237.58552 c 0.4482,0.8008 2.8412,0.7492 3.6352,0.531 -1.2147,-0.1769 -2.4293,-0.3538 -3.6352,-0.531" />
        <path
           inkscape:connector-curvature="0"
           id="path18657"
           style="fill:#ffffff;fill-opacity:1;fill-rule:evenodd;stroke:none"
           d="m 200.05146,237.81092 c -0.026,0.0519 -0.0521,0.0949 -0.0782,0.1383 0.1049,-6e-4 0.2098,-0.009 0.3231,-0.0184 -2e-4,-0.1208 -2e-4,-0.1208 -0.2449,-0.1199" />
        <path
           inkscape:connector-curvature="0"
           id="path18659"
           style="fill:#ffffff;fill-opacity:1;fill-rule:evenodd;stroke:none"
           d="m 200.41826,237.80952 c 0,0.0345 3e-4,0.0776 3e-4,0.1207 0.0352,0 0.0788,-3e-4 0.1225,-3e-4 -3e-4,-0.0345 -3e-4,-0.0776 -6e-4,-0.1207 -0.0349,0 -0.0785,3e-4 -0.1222,3e-4" />
        <path
           inkscape:connector-curvature="0"
           id="path18661"
           style="fill:#000000;fill-opacity:1;fill-rule:evenodd;stroke:none"
           d="m 180.04966,242.55472 c -0.7285,1.4516 -1.9293,2.7927 -2.448,4.2953 -0.0697,0.009 -0.1395,0.0176 -0.2007,0.0264 -0.3124,0.5618 -0.625,1.1236 -0.9286,1.6852 -0.7478,0.934 -1.3314,1.3932 -1.2923,2.5662 1.6001,0.5207 4.7253,0.0181 6.3581,-0.0737 -0.3101,-1.2668 -1.5979,-2.3752 -1.6895,-3.5564 1.1982,0.4703 1.6178,2.9702 2.8868,3.742 1.9653,-0.007 1.9653,-0.007 2.611,-0.1471 -0.005,-1.4318 -1.2146,-2.6609 -1.8394,-3.9438 0.0434,-0.0434 0.087,-0.0868 0.1392,-0.1299 1.2694,0.8323 1.6279,0.9604 3.094,0.5412 0.0338,-0.3277 0.0675,-0.6642 0.11,-1.0009 0.1225,0.0859 0.2537,0.163 0.3849,0.2403 0.3051,-0.2341 0.4269,-0.3551 0.8023,-0.4081 0.9561,1.1783 1.8051,1.6755 3.3142,1.1528 0.0343,-0.2157 0.0683,-0.4314 0.1026,-0.6471 0.2444,-0.0182 0.489,-0.0448 0.7421,-0.0718 0.9888,-1.9785 -0.3098,-3.6473 -2.4497,-3.6399 -0.4183,0.2086 -0.837,0.4082 -1.2469,0.608 -0.2687,0.5358 -0.2687,0.5358 -0.6171,0.8476 -0.3674,-0.2058 -0.9902,-0.9542 -1.8746,-1.5633 -1.582,-0.3311 -2.3388,0.5598 -2.9806,1.8473 0.002,0.4745 0.4085,1.8357 0.3042,1.9828 -0.2022,-0.3013 -2.3817,-4.1147 -3.282,-4.3531" />
        <path
           inkscape:connector-curvature="0"
           id="path18663"
           style="fill:#000000;fill-opacity:1;fill-rule:evenodd;stroke:none"
           d="m 202.01786,243.07402 c -0.1131,0.1729 -0.5405,0.3211 -1.1676,0.8495 -1.3802,2.3681 -0.0555,4.0195 2.5546,3.6309 0.2872,-0.2854 0.2517,-0.4147 0.2679,-0.8203 0.2798,0.1199 0.2798,0.1199 0.7078,0.1012 0.4178,-0.4156 0.3277,-1.1484 0.3781,-1.7178 -0.4413,-1.3612 -1.3081,-1.9276 -2.7408,-2.0435" />
        <path
           inkscape:connector-curvature="0"
           id="path18665"
           style="fill:#000000;fill-opacity:1;fill-rule:evenodd;stroke:none"
           d="m 193.39776,243.22452 c -0.5208,0.9765 -0.3215,2.9251 -0.3787,4.0467 -0.8382,0.0978 -0.8382,0.0978 -1.1084,0.2279 3e-4,0.1554 9e-4,0.3107 0.001,0.4573 2.4741,3.1223 2.4741,3.1223 2.7981,3.3454 0.9258,-0.003 0.4142,-1.4244 1.0233,-2.0304 0.6812,-0.0539 1.188,-0.0298 1.7456,-0.4114 0.0164,-0.2933 0.0329,-0.5952 0.0578,-0.8971 0.523,-0.3555 0.5219,-0.6659 0.6769,-1.2702 0.0522,-0.0176 0.1046,-0.0349 0.1659,-0.0525 0.8149,0.7994 0.8504,0.9545 1.9944,0.9247 0.0434,-0.1295 0.0953,-0.2591 0.1471,-0.3971 -0.1494,-0.2413 -0.2987,-0.4822 -0.4393,-0.7317 -2.4392,-0.6732 0.0657,-3.666 -3.0938,-3.0257 -0.6176,0.7353 0.654,4.6469 -1.4802,3.7313 -0.097,-0.2152 -0.2308,-3.4577 -0.3626,-3.7247 -0.28,-0.1284 -0.28,-0.1284 -1.7475,-0.1925" />
        <path
           inkscape:connector-curvature="0"
           id="path18667"
           style="fill:#000000;fill-opacity:1;fill-rule:evenodd;stroke:none"
           d="m 204.56116,243.54852 c 0.1083,1.0173 0.7387,1.4635 1.1698,2.3332 -0.3384,0.631 -0.6165,1.0199 -0.6664,1.7359 0.2273,0.0683 0.2273,0.0683 1.6248,0.0462 0.0865,-0.1899 0.1732,-0.3886 0.26,-0.5873 0.3415,0.3007 0.3415,0.3007 0.4209,0.5332 0.9527,0.1865 0.9527,0.1865 1.9834,0.1658 0.487,-0.5882 -0.7214,-1.4122 -0.724,-2.1883 0.3558,-0.6137 0.7475,-1.0205 0.7101,-1.7448 -0.7262,-0.3339 -1.6432,-0.2877 -2.4023,-0.1125 -0.0346,0.0865 -0.0692,0.1726 -0.1041,0.2591 -0.3319,-0.042 -0.3319,-0.042 -0.8047,-0.3852 -0.4893,-0.0156 -0.9783,-0.0312 -1.4675,-0.0553" />
        <path
           inkscape:connector-curvature="0"
           id="path18669"
           style="fill:#ffffff;fill-opacity:1;fill-rule:evenodd;stroke:none"
           d="m 214.75626,244.22912 c -0.8207,0.0805 -1.6416,0.1522 -2.4534,0.2242 3e-4,0.1378 8e-4,0.2758 10e-4,0.4139 0.3934,0.1454 0.3934,0.1454 2.5772,0.2585 8.7957,0.0558 17.6707,0.4136 26.4558,-0.0309 0.008,-0.2069 0.0159,-0.4139 0.0238,-0.6211 -8.8741,-0.0813 -17.7395,-0.163 -26.6048,-0.2446" />
        <path
           inkscape:connector-curvature="0"
           id="path18671"
           style="fill:#ffffff;fill-opacity:1;fill-rule:evenodd;stroke:none"
           d="m 189.77076,245.03102 c -0.0167,0.2245 -0.0334,0.4402 -0.0501,0.6559 0.6035,0.2481 0.8937,0.8334 1.3921,0.9783 0.0413,-0.6384 -0.7042,-1.5242 -1.342,-1.6342" />
        <path
           inkscape:connector-curvature="0"
           id="path18673"
           style="fill:#ffffff;fill-opacity:1;fill-rule:evenodd;stroke:none"
           d="m 213.19036,246.02852 c -0.3229,0.0442 -0.646,0.0885 -0.9689,0.1242 0.0269,0.2585 0.0542,0.5088 0.0899,0.7588 9.4504,0.0536 18.9011,0.1072 28.3603,0.1607 0.6021,-0.1312 0.6633,-0.1057 0.7314,-0.6579 -0.0525,-0.0428 -0.1052,-0.0944 -0.1579,-0.146 -9.3544,-0.0799 -18.709,-0.1598 -28.0548,-0.2398" />
        <path
           inkscape:connector-curvature="0"
           id="path18675"
           style="fill:#ffffff;fill-opacity:1;fill-rule:evenodd;stroke:none"
           d="m 186.49966,246.24142 c 0.0705,0.1721 0.0705,0.1721 0.2015,0.1718 -0.07,-0.0516 -0.14,-0.1117 -0.2015,-0.1718" />
        <path
           inkscape:connector-curvature="0"
           id="path18677"
           style="fill:#ffffff;fill-opacity:1;fill-rule:evenodd;stroke:none"
           d="m 203.24276,246.18362 c 0.106,0.3016 0.106,0.3016 0.2812,0.4561 -0.1236,-0.379 -0.1236,-0.379 -0.2812,-0.4561" />
        <path
           inkscape:connector-curvature="0"
           id="path18679"
           style="fill:#ffffff;fill-opacity:1;fill-rule:evenodd;stroke:none"
           d="m 160.65696,246.69272 c -0.4799,0.1397 -0.7327,0.2786 -1.1332,0.5731 -0.009,0.1123 -0.008,0.2158 -0.008,0.3192 0.9777,-0.1068 1.842,-0.2392 2.8208,-0.1131 1.8187,0.5973 1.8187,0.5973 2.3255,0.6475 -0.5559,-1.5594 -2.6164,-1.3797 -4.0054,-1.4267" />
        <path
           inkscape:connector-curvature="0"
           id="path18681"
           style="fill:#ffffff;fill-opacity:1;fill-rule:evenodd;stroke:none"
           d="m 156.40786,247.90622 c -1.5349,0.678 -1.1551,6.8525 -0.9927,8.3183 0.428,-0.002 0.8039,0.0833 1.1875,-0.1251 0.5343,-2.0114 0.9459,-4.2122 0.7202,-6.29 -0.1675,-0.4048 -0.5391,-1.7493 -0.915,-1.9032" />
        <path
           inkscape:connector-curvature="0"
           id="path18683"
           style="fill:#ffffff;fill-opacity:1;fill-rule:evenodd;stroke:none"
           d="m 160.41886,248.48762 c -0.8373,0.3566 -1.5525,0.6091 -1.5054,1.618 0.0875,0.0516 0.1839,0.1029 0.28,0.1457 1.8513,-0.1012 3.7111,-0.2889 5.3045,0.7926 0.1397,0.0252 0.2795,0.0507 0.4195,0.0674 0.201,-2.3899 -2.7428,-2.5523 -4.4986,-2.6237" />
        <path
           inkscape:connector-curvature="0"
           id="path18685"
           style="fill:#ffffff;fill-opacity:1;fill-rule:evenodd;stroke:none"
           d="m 166.97256,249.42242 c -0.2165,0.4493 -0.4322,1.2175 -0.8946,1.4004 -0.5272,1.5803 -0.6004,3.1331 -1.0925,4.7131 0.001,0.345 0.0111,0.6815 0.021,1.0177 0.8303,0.1698 2.0625,0.3121 2.8389,0.0592 0.0184,-2.1478 0.3663,-5.0902 -0.462,-7.1141 -0.1398,-0.0255 -0.2795,-0.051 -0.4108,-0.0763" />
        <path
           inkscape:connector-curvature="0"
           id="path18687"
           style="fill:#ffffff;fill-opacity:1;fill-rule:evenodd;stroke:none"
           d="m 160.30546,251.00642 c -1.3087,0.4187 -2.1291,0.5681 -1.9318,2.0424 0.7682,-0.0632 1.5367,-0.1261 2.3052,-0.1891 0.6032,0.1619 1.2064,0.3235 1.8184,0.4768 1.461,0.7107 1.461,0.7107 1.8193,0.7699 0.6814,-2.4432 -2.2198,-2.8647 -4.0111,-3.1" />
        <path
           inkscape:connector-curvature="0"
           id="path18689"
           style="fill:#ffffff;fill-opacity:1;fill-rule:evenodd;stroke:none"
           d="m 154.11976,252.94282 c -0.1698,1.3892 -0.1043,2.6396 -0.003,4.0365 0.1783,-1.3892 0.104,-2.6311 0.003,-4.0365" />
        <path
           inkscape:connector-curvature="0"
           id="path18691"
           style="fill:#ffffff;fill-opacity:1;fill-rule:evenodd;stroke:none"
           d="m 159.58156,253.76912 c -1.1075,0.4782 -1.9449,0.7829 -1.8612,2.2059 0.5502,0.0153 0.5502,0.0153 1.3966,-0.2205 1.2841,0.1077 3.1544,0.4204 3.8313,1.6429 0.1049,-2e-4 0.2183,-8e-4 0.3319,-0.001 1.1081,-2.7899 -1.366,-3.4801 -3.6986,-3.6272" />
        <path
           inkscape:connector-curvature="0"
           id="path18693"
           style="fill:#ffffff;fill-opacity:1;fill-rule:evenodd;stroke:none"
           d="m 159.59766,258.31442 c -0.1825,0.2424 -0.3653,0.4845 -0.5479,0.7181 -1.9151,6.7169 -1.9151,6.7169 -3.8412,12.8301 -1.6268,4.2752 -3.2437,8.9212 -5.8595,12.708 -0.0698,0.009 -0.1395,0.0179 -0.2095,0.0267 -0.017,0.0776 -0.0255,0.1468 -0.034,0.2157 -0.07,0.009 -0.1398,0.0179 -0.2095,0.0266 -0.3121,0.6911 -1.9165,1.4644 -2.5617,1.7513 -2.766,0.7772 -4.5949,-0.1826 -5.879,-2.6969 -0.4629,-2.5081 -0.5264,-5.6735 2.8185,-5.6849 0.4376,0.2571 1.0675,0.5137 1.2353,1.0134 1.6251,0.1928 1.0483,4.9904 0.8683,5.9831 0.6723,-0.0542 0.9688,-0.1673 1.5003,-0.5488 1.5781,-3.2658 0.3957,-6.5996 -2.8581,-8.0031 -1.0928,-0.2375 -1.0928,-0.2375 -1.9401,-0.252 -5.3305,1.6572 -5.2358,6.1937 -2.4094,10.2206 0.5519,0.3949 1.1035,0.7813 1.6636,1.1674 2.7717,0.8359 4.4312,0.7869 7.0906,-0.4386 0.008,-0.0688 0.017,-0.138 0.0255,-0.2069 0.3753,-0.1049 0.5842,-0.3212 0.8198,-0.3909 0.008,-0.0692 0.0167,-0.138 0.0252,-0.2072 0.9247,-0.3827 1.5585,-1.4372 2.2023,-2.1813 1.1191,-2.1084 2.2385,-4.2168 3.3664,-6.3252 2.3542,-6.063 4.2106,-12.1501 6.0052,-18.3926 -0.0448,-0.2931 -0.0896,-0.5947 -0.1341,-0.8966 -0.4292,-0.309 -0.6128,-0.3773 -1.137,-0.436" />
        <path
           inkscape:connector-curvature="0"
           id="path18695"
           style="fill:#ffffff;fill-opacity:1;fill-rule:evenodd;stroke:none"
           d="m 136.01886,279.01022 c -4.6642,2.4744 -2.7,9.5834 1.595,11.4403 2.0276,0.3813 2.9801,0.4814 4.9164,-0.267 0.0258,-0.0949 0.0516,-0.1899 0.0774,-0.2937 -4.0578,-1.4867 -8.1056,-2.5681 -7.0146,-7.747 0.4592,-1.054 0.6741,-2.0036 0.906,-3.1343 -0.1659,6e-4 -0.3232,0.001 -0.4802,0.002" />
        <path
           inkscape:connector-curvature="0"
           id="path18697"
           style="fill:#ffffff;fill-opacity:1;fill-rule:evenodd;stroke:none"
           d="m 142.57256,279.94512 c 0.2999,0.8098 0.5998,1.6109 0.9082,2.412 0.0204,0.8365 0.0496,1.673 0.0788,2.501 0.0958,-0.0176 0.1919,-0.0437 0.288,-0.0701 0.8056,-1.8226 0.8195,-2.8491 -0.2611,-4.6479 -0.28,-0.1284 -0.28,-0.1284 -1.0139,-0.195" />
        <path
           inkscape:connector-curvature="0"
           id="path18699"
           style="fill:#ffffff;fill-opacity:1;fill-rule:evenodd;stroke:none"
           d="m 141.61216,282.46702 c 0.0884,0.3532 0.0808,0.6724 0.3699,0.9131 0.0423,-0.4487 0.0423,-0.4487 -0.0901,-0.8365 -0.0964,-0.0255 -0.1925,-0.051 -0.2798,-0.0766" />
        <path
           inkscape:connector-curvature="0"
           id="path18701"
           style="fill:#ffffff;fill-opacity:1;fill-rule:evenodd;stroke:none"
           d="m 131.05736,283.82312 c -0.9593,0.4258 -0.7849,2.8576 -0.7906,3.7029 1.1823,3.3512 3.3888,4.9306 6.755,5.9281 1.5809,-0.005 3.0308,-0.002 4.5487,-0.5159 0.4093,-0.3379 0.8187,-0.6755 1.2365,-1.0222 -0.2795,-0.008 -0.5502,-0.0238 -0.8209,-0.0402 -4.1533,1.1701 -7.5064,-1.0264 -9.5275,-4.4782 -0.4941,-1.4301 -0.743,-2.628 -1.1129,-3.5064 -0.0961,-0.017 -0.1922,-0.0426 -0.2883,-0.0681" />
        <path
           inkscape:connector-curvature="0"
           id="path18703"
           style="fill:#ffffff;fill-opacity:1;fill-rule:evenodd;stroke:none"
           d="m 131.21186,292.92212 c 0.2474,0.8705 0.669,1.4986 1.2651,2.1605 4.0504,1.7802 6.7073,2.3145 10.0145,-1.0434 0.0785,-0.0264 0.1658,-0.0524 0.2529,-0.0785 -3e-4,-0.1123 -9e-4,-0.233 -0.001,-0.3538 -2.9302,1.2952 -4.8946,1.5177 -8.1198,0.813 -2.187,-0.9499 -3.0359,-1.4301 -3.4115,-1.4978" />
        <path
           inkscape:connector-curvature="0"
           id="path18705"
           style="fill:#ffffff;fill-opacity:1;fill-rule:evenodd;stroke:none"
           d="m 143.59496,294.91512 c -2.158,2.2929 -4.051,2.8947 -7.1421,3.0952 -2.1853,-0.4754 -3.6457,-0.9448 -4.1349,-1.0123 0.307,2.8366 4.6921,3.0115 6.8136,2.7969 2.4684,-0.983 4.1151,-2.1704 4.7081,-4.8806 -0.0873,2e-4 -0.1662,5e-4 -0.2447,8e-4" />
        <path
           inkscape:connector-curvature="0"
           id="path18707"
           style="fill:#ffffff;fill-opacity:1;fill-rule:evenodd;stroke:none"
           d="m 144.93696,296.47162 c -1.6767,2.5673 -3.1655,3.9526 -6.1938,4.6446 -0.8821,0.003 -1.7642,0.006 -2.6376,0.009 -0.9791,-0.2381 -0.9791,-0.2381 -1.6427,-0.2273 0.5933,2.327 4.4099,2.2791 6.2516,1.8848 1.9267,-0.9556 1.9267,-0.9556 2.8241,-1.5795 1.1121,-1.6773 1.7113,-2.6195 1.6342,-4.7324 -0.0788,2e-4 -0.1573,5e-4 -0.2358,8e-4" />
      </g>
      <text
         xml:space="preserve"
         style="font-style:normal;font-weight:normal;font-size:32px;line-height:125%;font-family:sans-serif;letter-spacing:0px;word-spacing:0px;fill:#ffffff;fill-opacity:1;stroke:none;stroke-width:1px;stroke-linecap:butt;stroke-linejoin:miter;stroke-opacity:1"
         x="18.595371"
         y="-395.83636"
         id="text19921"
         sodipodi:linespacing="125%"
         transform="scale(1,-1)"><tspan
           sodipodi:role="line"
           id="tspan19923"
           x="18.595371"
           y="-395.83636"
           style="font-style:normal;font-variant:normal;font-weight:normal;font-stretch:normal;font-size:12px;line-height:125%;font-family:Verdana;-inkscape-font-specification:'Verdana, Normal';text-align:start;writing-mode:lr-tb;text-anchor:start;fill:#ffffff;fill-opacity:1">Karl Quappe Controls</tspan></text>
      <text
         xml:space="preserve"
         style="font-style:normal;font-variant:normal;font-weight:normal;font-stretch:normal;font-size:12.5px;line-height:110.00000238%;font-family:'Times New Roman';-inkscape-font-specification:'Times New Roman, Normal';text-align:start;letter-spacing:0px;word-spacing:0px;writing-mode:lr-tb;text-anchor:start;fill:#000000;fill-opacity:1;stroke:none;stroke-width:1px;stroke-linecap:butt;stroke-linejoin:miter;stroke-opacity:1"
         x="20.767218"
         y="-371.1889"
         id="text21340"
         sodipodi:linespacing="110%"
         transform="scale(1,-1)"><tspan
           sodipodi:role="line"
           id="tspan21342"
           x="20.767218"
           y="-371.1889"
           style="font-style:normal;font-variant:normal;font-weight:normal;font-stretch:normal;font-size:12.5px;line-height:110.00000238%;font-family:'Times New Roman';-inkscape-font-specification:'Times New Roman, Normal';text-align:start;writing-mode:lr-tb;text-anchor:start">Karl Quappe is designed to be played with the</tspan><tspan
           sodipodi:role="line"
           x="20.767218"
           y="-357.4389"
           style="font-style:normal;font-variant:normal;font-weight:normal;font-stretch:normal;font-size:12.5px;line-height:110.00000238%;font-family:'Times New Roman';-inkscape-font-specification:'Times New Roman, Normal';text-align:start;writing-mode:lr-tb;text-anchor:start"
           id="tspan21346">built-in control panel only. The functions of the </tspan><tspan
           sodipodi:role="line"
           x="20.767218"
           y="-343.6889"
           style="font-style:normal;font-variant:normal;font-weight:normal;font-stretch:normal;font-size:12.5px;line-height:110.00000238%;font-family:'Times New Roman';-inkscape-font-specification:'Times New Roman, Normal';text-align:start;writing-mode:lr-tb;text-anchor:start"
           id="tspan21348">controls are: </tspan></text>
      <path
         style="fill:none;fill-rule:evenodd;stroke:#000000;stroke-width:0.47999999;stroke-linecap:butt;stroke-linejoin:miter;stroke-miterlimit:4;stroke-dasharray:none;stroke-opacity:1;marker-start:url(#Arrow1Mstart)"
         d="m 98.303927,169.04451 c 0,88 0,88 0,88"
         id="path21425"
         inkscape:connector-curvature="0" />
      <text
         style="font-style:normal;font-variant:normal;font-weight:500;font-stretch:normal;font-size:8px;line-height:125%;font-family:'PingFang TC';-inkscape-font-specification:'PingFang TC, Medium';text-align:start;writing-mode:lr-tb;text-anchor:start;display:inline;fill:#828282;fill-opacity:1;fill-rule:nonzero;stroke:none;stroke-width:0.89999998;stroke-miterlimit:4;stroke-dasharray:none;stroke-opacity:1"
         id="text4625-3"
         x="43.581871"
         y="-288.05295"
         sodipodi:linespacing="125%"
         transform="scale(1,-1)">
        <tspan
           x="43.581871"
           sodipodi:role="line"
           id="tspan15570"
           y="-288.05295"
           style="font-style:normal;font-variant:normal;font-weight:500;font-stretch:normal;font-size:12px;line-height:125%;font-family:'PingFang TC';-inkscape-font-specification:'PingFang TC, Medium';text-align:start;writing-mode:lr-tb;text-anchor:start">Joystick</tspan>
      </text>
      <text
         xml:space="preserve"
         style="font-style:normal;font-weight:normal;font-size:32px;line-height:125%;font-family:sans-serif;letter-spacing:0px;word-spacing:0px;fill:#000000;fill-opacity:1;stroke:none;stroke-width:1px;stroke-linecap:butt;stroke-linejoin:miter;stroke-opacity:1"
         x="43.414913"
         y="-276.6438"
         id="text21982"
         sodipodi:linespacing="125%"
         transform="scale(1,-1)"><tspan
           sodipodi:role="line"
           id="tspan21984"
           x="43.414913"
           y="-276.6438"
           style="font-style:normal;font-variant:normal;font-weight:normal;font-stretch:normal;font-size:8px;line-height:125%;font-family:'PingFang HK';-inkscape-font-specification:'PingFang HK, Normal';text-align:start;writing-mode:lr-tb;text-anchor:start">Moves Karl in the </tspan><tspan
           sodipodi:role="line"
           x="43.414913"
           y="-266.6438"
           style="font-style:normal;font-variant:normal;font-weight:normal;font-stretch:normal;font-size:8px;line-height:125%;font-family:'PingFang HK';-inkscape-font-specification:'PingFang HK, Normal';text-align:start;writing-mode:lr-tb;text-anchor:start"
           id="tspan21986">direction you steer </tspan><tspan
           sodipodi:role="line"
           x="43.414913"
           y="-256.6438"
           style="font-style:normal;font-variant:normal;font-weight:normal;font-stretch:normal;font-size:8px;line-height:125%;font-family:'PingFang HK';-inkscape-font-specification:'PingFang HK, Normal';text-align:start;writing-mode:lr-tb;text-anchor:start"
           id="tspan21988">the joystick. </tspan></text>
    </g>
  </g>
</svg>
