<?xml version="1.0" encoding="UTF-8" standalone="no"?>
<!-- Created with Inkscape (http://www.inkscape.org/) -->

<svg
   xmlns:dc="http://purl.org/dc/elements/1.1/"
   xmlns:cc="http://creativecommons.org/ns#"
   xmlns:rdf="http://www.w3.org/1999/02/22-rdf-syntax-ns#"
   xmlns:svg="http://www.w3.org/2000/svg"
   xmlns="http://www.w3.org/2000/svg"
   xmlns:sodipodi="http://sodipodi.sourceforge.net/DTD/sodipodi-0.dtd"
   xmlns:inkscape="http://www.inkscape.org/namespaces/inkscape"
   id="svg7269"
   version="1.1"
   inkscape:version="0.92.0 r15299"
   xml:space="preserve"
   width="678.73999"
   height="852.59869"
   viewBox="0 0 636.31873 799.31128"
   sodipodi:docname="KarlOverlayOutline.svg"><metadata
     id="metadata7275"><rdf:RDF><cc:Work
         rdf:about=""><dc:format>image/svg+xml</dc:format><dc:type
           rdf:resource="http://purl.org/dc/dcmitype/StillImage" /><dc:title /></cc:Work></rdf:RDF></metadata><defs
     id="defs7273"><clipPath
       clipPathUnits="userSpaceOnUse"
       id="clipPath7283"><path
         d="M 15,15 H 494.055 V 624.449 H 15 Z"
         id="path7285"
         inkscape:connector-curvature="0" /></clipPath><clipPath
       clipPathUnits="userSpaceOnUse"
       id="clipPath7295"><path
         d="M 0,0 H 509.055 V 639.449 H 0 Z"
         id="path7297"
         inkscape:connector-curvature="0" /></clipPath></defs><sodipodi:namedview
     pagecolor="#ffffff"
     bordercolor="#666666"
     borderopacity="1"
     objecttolerance="10"
     gridtolerance="10"
     guidetolerance="10"
     inkscape:pageopacity="0"
     inkscape:pageshadow="2"
     inkscape:window-width="1292"
     inkscape:window-height="1202"
     id="namedview7271"
     showgrid="true"
     showguides="false"
     inkscape:zoom="0.83510494"
     inkscape:cx="449.82223"
     inkscape:cy="526.07316"
     inkscape:window-x="671"
     inkscape:window-y="37"
     inkscape:window-maximized="0"
     inkscape:current-layer="g7277"><inkscape:grid
       type="xygrid"
       id="grid7307"
       originx="0"
       originy="0"
       spacingx="1"
       spacingy="1" /></sodipodi:namedview><g
     id="g7277"
     inkscape:groupmode="layer"
     inkscape:label="cutter"
     transform="matrix(1.25,0,0,-1.25,0,799.31125)"><g
       id="g7279"
       transform="matrix(1.0000006,0,0,0.9994279,-1.5776916e-4,0.35228081)"><g
         id="g7281"
         clip-path="url(#clipPath7283)"><g
           id="g7287"
           transform="translate(485.0511,52.1677)"><path
             d="m 0,0 v 535.113 c 0,0 0,28.164 -28.113,28.164 l -166.836,0.075 c -3.26,0 -3.472,-2.49 -3.472,-2.83 0,-17.587 -14.684,-30.386 -32.845,-30.386 -18.16,0 -32.848,12.799 -32.848,30.188 0,1.755 -1.644,3.028 -2.976,3.028 l -165.845,-0.075 c 0,0 -28.112,0 -28.112,-28.164 V 0 c 0,0 0,-28.164 28.112,-28.164 h 404.822 c 0,0 28.113,0 28.113,28.164 z"
             style="fill:none;stroke:#d70d66;stroke-width:1;stroke-linecap:butt;stroke-linejoin:miter;stroke-miterlimit:4;stroke-dasharray:none;stroke-opacity:1"
             id="path7289"
             inkscape:connector-curvature="0" /></g></g></g><g
       id="g7291"><g
         id="g7293"
         clip-path="url(#clipPath7295)"><g
           id="g7299"
           transform="translate(15,615.9448)"><path
             d="m 0,0 h -15 m 494.055,0 h 15 M 0,-592.441 h -15 m 494.055,0 h 15 M 8.504,8.504 v 15 m 0,-624.449 v -15 M 470.551,8.504 v 15 m 0,-624.449 v -15"
             style="fill:none;stroke:#ffffff;stroke-width:1.25;stroke-linecap:butt;stroke-linejoin:miter;stroke-miterlimit:10;stroke-dasharray:none;stroke-opacity:1"
             id="path7301"
             inkscape:connector-curvature="0" /></g><g
           id="g7303"
           transform="translate(15,615.9448)"><path
             d="m 0,0 h -15 m 494.055,0 h 15 M 0,-592.441 h -15 m 494.055,0 h 15 M 8.504,8.504 v 15 m 0,-624.449 v -15 M 470.551,8.504 v 15 m 0,-624.449 v -15"
             style="fill:none;stroke:#000000;stroke-width:0.25;stroke-linecap:butt;stroke-linejoin:miter;stroke-miterlimit:10;stroke-dasharray:none;stroke-opacity:1"
             id="path7305"
             inkscape:connector-curvature="0" /></g></g></g></g></svg>